HIERARCHY
ROOT Hips
{
  OFFSET -102.467 93.6631 130.069
  CHANNELS 6 Xposition Yposition Zposition Zrotation Xrotation Yrotation
  JOINT LeftUpLeg
  {
    OFFSET 8.64259 1.95398 -2.38835
    CHANNELS 3 Zrotation Xrotation Yrotation
    JOINT LeftLeg
    {
      OFFSET 43.7702 0 0
      CHANNELS 3 Zrotation Xrotation Yrotation
      JOINT LeftFoot
      {
        OFFSET 40.6238 0 0
        CHANNELS 3 Zrotation Xrotation Yrotation
        JOINT LeftToeBase
        {
          OFFSET 12.7242 0 0
          CHANNELS 3 Zrotation Xrotation Yrotation
          End Site
          {
            OFFSET 0 0 0
          }
        }
      }
    }
  }
  JOINT RightUpLeg
  {
    OFFSET -8.2249 1.95398 -2.59336
    CHANNELS 3 Zrotation Xrotation Yrotation
    JOINT RightLeg
    {
      OFFSET 43.5653 0 0
      CHANNELS 3 Zrotation Xrotation Yrotation
      JOINT RightFoot
      {
        OFFSET 40.6238 0 0
        CHANNELS 3 Zrotation Xrotation Yrotation
        JOINT RightToeBase
        {
          OFFSET 12.7242 0 0
          CHANNELS 3 Zrotation Xrotation Yrotation
          End Site
          {
            OFFSET 0 0 0
          }
        }
      }
    }
  }
  JOINT Spine
  {
    OFFSET 0.165834 0.87714 6.61349
    CHANNELS 3 Zrotation Xrotation Yrotation
    JOINT Spine1
    {
      OFFSET 7.38963 1.71661e-005 0
      CHANNELS 3 Zrotation Xrotation Yrotation
      JOINT Spine2
      {
        OFFSET 11.9445 1.14441e-005 0
        CHANNELS 3 Zrotation Xrotation Yrotation
        JOINT Spine3
        {
          OFFSET 14.7254 4.19617e-005 0
          CHANNELS 3 Zrotation Xrotation Yrotation
          JOINT Spine4
          {
            OFFSET 10.9679 0 0
            CHANNELS 3 Zrotation Xrotation Yrotation
            JOINT RightShoulder
            {
              OFFSET 2.46616 -1.6653 3.69651
              CHANNELS 3 Zrotation Xrotation Yrotation
              JOINT RightArm
              {
                OFFSET 13.0012 0 0
                CHANNELS 3 Zrotation Xrotation Yrotation
                JOINT RightForeArm
                {
                  OFFSET 28.7848 1.52588e-005 0
                  CHANNELS 3 Zrotation Xrotation Yrotation
                  JOINT RightHand
                  {
                    OFFSET 26.5688 1.52588e-005 0
                    CHANNELS 3 Zrotation Xrotation Yrotation
                    End Site
                    {
                      OFFSET 0 0 0
                    }
                  }
                }
              }
            }
            JOINT LeftShoulder
            {
              OFFSET 2.38034 -1.29275 -3.7523
              CHANNELS 3 Zrotation Xrotation Yrotation
              JOINT LeftArm
              {
                OFFSET 16.3182 6.10351e-005 0
                CHANNELS 3 Zrotation Xrotation Yrotation
                JOINT LeftForeArm
                {
                  OFFSET 27.0901 0 0
                  CHANNELS 3 Zrotation Xrotation Yrotation
                  JOINT LeftHand
                  {
                    OFFSET 24.5451 1.52588e-005 0
                    CHANNELS 3 Zrotation Xrotation Yrotation
                    End Site
                    {
                      OFFSET 0 0 0
                    }
                  }
                }
              }
            }
            JOINT Neck
            {
              OFFSET 5.0226 -0.0266342 0
              CHANNELS 3 Zrotation Xrotation Yrotation
              JOINT Head
              {
                OFFSET 6.69363 2.86102e-005 0
                CHANNELS 3 Zrotation Xrotation Yrotation
                End Site
                {
                  OFFSET 0 0 0
                }
              }
            }
          }
        }
      }
    }
  }
}
MOTION
Frames:	17
Frame Time:	0.0416667
-320.925 78.5053 333.02 99.1101 19.0452 86.6847 -160.746 27.6761 100.775 -64.3548 28.8156 -21.5012 49.46 0.496164 49.6138 107.715 6.37481 19.029 85.5104 43.8665 53.7696 -57.6503 -35.9071 30.7889 150.581 4.65801 -26.0927 -169.441 -19.9743 25.8574 3.86772 5.63449 -90.7658 15.7257 7.25567 -2.69147 4.07157 7.1302 -3.00948 -18.6259 7.72584 -0.374141 1.38678 7.72584 -0.374145 128.893 -18.9283 -20.5838 39.6132 -31.5736 -1.06468 8.63116 -45.3439 0.00794631 -6.58614 -0.464997 3.28938 -54.2004 -40.7048 136.151 42.4459 -67.0689 49.0111 -143.9 -65.1653 -166.194 140.481 -23.3055 -12.269 -63.7977 -0.848802 -6.11531 14.2296 -6.23752 -12.1136 
-321.055 78.481 333.172 99.1562 19.0834 86.7189 -160.586 27.766 100.816 -63.9043 30.3204 -21.5449 48.345 -1.93414 49.9709 109.207 6.36057 18.8628 85.9511 43.8696 53.2781 -56.8764 -36.6975 31.3985 147.613 2.44468 -25.5408 -168.985 -16.852 25.9666 3.86608 5.63929 -90.775 15.7163 7.24813 -2.70791 4.06215 7.12194 -3.02556 -18.6349 7.72482 -0.392131 1.37779 7.72482 -0.392129 128.891 -18.8862 -20.5452 39.5745 -31.477 -1.05803 8.65434 -45.531 0.0079727 -6.429 -0.472273 3.65908 -54.1623 -40.7171 136.202 42.2588 -66.9616 48.7454 -143.981 -65.248 -166.212 140.64 -23.3678 -12.2546 -63.7456 -0.843762 -6.04466 14.1734 -6.2134 -12.248 
-321.431 78.3821 333.619 99.2917 19.1964 86.8189 -160.156 27.9704 100.967 -64.1283 31.2498 -20.9111 45.1325 -6.39358 47.8755 113.338 6.22816 18.336 87.2551 43.8757 51.8317 -54.6458 -38.7787 33.2193 138.79 -3.74849 -24.5269 -168.692 -4.22981 26.0635 3.86134 5.65337 -90.8021 15.6889 7.22576 -2.75603 4.03448 7.09749 -3.07263 -18.6613 7.71817 -0.444879 1.35138 7.71817 -0.444874 128.888 -18.7648 -20.4326 39.4607 -31.1963 -1.03925 8.72144 -46.0603 0.00804879 -5.98392 -0.488289 4.72103 -54.0569 -40.7531 136.351 41.7138 -66.6439 47.9732 -144.242 -65.4704 -166.289 141.092 -23.5596 -12.2173 -63.5929 -0.828379 -5.83885 14.0099 -6.14195 -12.6406 
-322.027 78.1272 334.352 99.5128 19.3831 86.9818 -159.555 28.1169 101.295 -64.3715 32.8457 -19.9534 40.1256 -12.7719 43.79 119.213 5.73046 17.3926 89.394 43.8465 49.4863 -58.2671 -33.0559 31.8985 129.423 -14.2632 -14.1297 -174.171 29.5829 27.0516 3.85308 5.67628 -90.846 15.6442 7.18842 -2.83409 3.98943 7.05675 -3.14892 -18.7042 7.70606 -0.530768 1.30845 7.70607 -0.530769 128.883 -18.5727 -20.2519 39.274 -30.746 -1.01052 8.82671 -46.8673 0.00816899 -5.30699 -0.498708 6.38086 -53.8872 -40.8101 136.592 40.8513 -66.1199 46.7489 -144.711 -65.7953 -166.461 141.804 -23.8837 -12.1634 -63.3454 -0.801143 -5.50795 13.7497 -6.02368 -13.2732 
-322.831 77.6014 335.359 99.8169 19.6448 87.2053 -158.862 28.0003 101.824 -64.7065 34.9252 -18.7239 33.8166 -19.4336 37.3274 125.572 4.61419 16.0679 92.3019 43.6263 46.3464 110.362 13.7572 151.357 66.6597 9.21182 -171.881 113.483 75.1108 88.5681 3.8408 5.70752 -90.9061 15.5831 7.13539 -2.94057 3.92779 6.99907 -3.2529 -18.7628 7.68748 -0.648591 1.24988 7.68749 -0.648593 128.879 -18.3196 -20.0085 39.0162 -30.1404 -0.974249 8.96038 -47.8788 0.00832721 -4.46876 -0.486975 8.51816 -53.6576 -40.8846 136.918 39.7304 -65.3921 45.1459 -145.416 -66.1884 -166.762 142.74 -24.3394 -12.096 -63.0097 -0.759761 -5.06307 13.4053 -5.85833 -14.1269 
-323.851 76.7219 336.627 100.203 19.9848 87.488 -158.102 27.4851 102.5 -65.2774 37.3434 -17.2852 27.0504 -24.8247 29.0396 131.233 2.87778 14.5592 95.8654 42.9082 42.5518 112.931 16.5119 148.852 80.8771 26.6852 -171.229 34.7873 49.5298 154.523 3.82362 5.74674 -90.9816 15.5063 7.06538 -3.07418 3.85027 6.92328 -3.38321 -18.8362 7.66093 -0.797473 1.17645 7.66093 -0.797473 128.876 -18.0155 -19.7079 38.6884 -29.3951 -0.932756 9.10775 -49.0282 0.00851786 -3.54307 -0.440632 10.9959 -53.3725 -40.9729 137.324 38.4234 -64.4634 43.2504 -146.379 -66.616 -167.222 143.872 -24.9277 -12.0171 -62.5923 -0.70169 -4.51552 12.991 -5.64536 -15.1826 
-325.112 75.4929 338.146 100.692 20.3537 87.8502 -157.245 26.5113 103.299 -66.1907 39.9389 -15.7002 20.995 -28.1787 20.3229 135.522 0.86238 13.1427 99.9532 41.3422 38.2706 115.745 18.1683 145.812 97.1585 40.7742 -173.555 29.0077 36.5393 150.488 3.80673 5.79544 -91.0765 15.4112 6.98684 -3.24352 3.75423 6.83737 -3.54883 -18.9274 7.63697 -0.983084 1.08525 7.63698 -0.983086 128.878 -17.6707 -19.3557 38.2928 -28.527 -0.887831 9.24934 -50.2603 0.0087362 -2.60034 -0.354613 13.6652 -53.0366 -41.0704 137.803 37.0081 -63.3393 41.1537 -147.623 -67.0408 -167.867 145.166 -25.6556 -11.9298 -62.1006 -0.624056 -3.87703 12.5217 -5.38442 -16.4206 
-326.65 73.9459 339.906 100.925 21.6303 87.961 -156.773 25.4094 103.333 -67.6732 42.4726 -13.6762 16.4525 -29.7696 12.5007 138.394 -0.962214 12.0249 104.347 38.017 33.1921 119.245 18.142 140.847 113.701 49.5486 -177.897 29.1509 33.0337 144.21 3.69161 5.82307 -91.124 15.3505 6.73665 -3.29459 3.69212 6.58522 -3.58871 -18.9777 7.41388 -1.10823 1.03492 7.41389 -1.10822 128.885 -17.2957 -18.9575 37.8325 -27.5567 -0.840967 9.36274 -51.5335 0.00897838 -1.70074 -0.23238 16.3737 -52.6549 -41.1727 138.349 35.5598 -62.0302 38.9443 -149.16 -67.4168 -168.715 146.591 -26.5404 -11.8397 -61.5419 -0.524152 -3.15999 12.0136 -5.07584 -17.8203 
-328.433 72.2318 341.911 101.411 22.1229 88.3484 -155.844 23.6422 104.052 -69.0407 44.9591 -12.0212 13.884 -30.1556 6.51554 140.163 -2.29885 11.2719 108.901 33.6542 28.6037 121.912 16.3458 136.386 127.599 55.2478 179.402 30.3862 31.9785 138.676 3.66657 5.87531 -91.2269 15.2478 6.63848 -3.47703 3.58835 6.47913 -3.76654 -19.0755 7.37515 -1.31231 0.937168 7.37513 -1.31232 128.899 -16.9008 -18.5191 37.3121 -26.5068 -0.792964 9.42724 -52.82 0.00924188 -0.886241 -0.0844317 18.9859 -52.2328 -41.275 138.955 34.1436 -60.5519 36.6998 -150.997 -67.6852 -169.773 148.112 -27.6152 -11.756 -60.9241 -0.399546 -2.37686 11.4824 -4.7209 -19.3609 
-330.472 70.3965 344.155 102.016 22.4479 88.848 -154.766 21.4562 104.989 -70.3895 47.3287 -10.4067 12.932 -29.9328 2.30751 141.214 -3.08869 10.8529 113.446 27.3561 24.3705 125.158 13.4735 130.995 139.059 58.1813 177.689 31.459 31.3276 134.359 3.66276 5.93871 -91.354 15.1242 6.57074 -3.71063 3.46376 6.40114 -3.9968 -19.1946 7.3807 -1.55601 0.818034 7.38071 -1.55601 128.923 -16.4947 -18.0459 36.7374 -25.4018 -0.744147 9.42822 -54.1008 0.00952496 -0.179108 0.0760236 21.3994 -51.7756 -41.3732 139.614 32.8096 -58.9239 34.482 -153.126 -67.7728 -171.036 149.689 -28.9308 -11.6924 -60.2551 -0.248743 -1.53995 10.943 -4.32211 -21.0225 
-332.746 68.5213 346.61 102.671 22.833 89.3872 -153.67 18.9148 105.984 -71.5534 49.5442 -8.75922 13.0731 -29.4601 -0.471606 141.837 -3.41036 10.6976 117.734 18.0561 20.7336 137.919 14.127 122.074 147.271 49.0864 174.831 32.1222 30.6434 131.078 3.65433 6.00667 -91.4905 14.9912 6.48973 -3.96029 3.32959 6.30928 -4.24254 -19.3222 7.37851 -1.81911 0.690459 7.37851 -1.81912 128.956 -16.0859 -17.5434 36.116 -24.2674 -0.694365 9.35862 -55.3611 0.00982589 0.414099 0.236246 23.5455 -51.2892 -41.4632 140.32 31.5914 -57.1692 32.3354 -155.517 -67.5838 -172.476 151.281 -30.562 -11.6684 -59.5421 -0.0707402 -0.661068 10.4093 -3.88311 -22.7851 
-335.172 66.769 349.187 103.035 23.2473 89.7715 -152.476 15.7878 106.589 -71.8514 51.5526 -7.28144 13.6798 -28.9811 -2.35092 142.223 -3.38447 10.7314 121.144 4.37177 18.1106 20.951 -21.4694 79.4843 10.4411 6.74225 -13.8633 32.6459 30.0834 128.445 3.64132 6.05391 -91.5924 14.891 6.41665 -4.13773 3.22833 6.22852 -4.41651 -19.4174 7.36208 -2.01086 0.595286 7.36208 -2.01087 129.001 -15.6817 -17.0174 35.4566 -23.1307 -0.64328 9.21958 -56.5863 0.0101421 0.898527 0.386081 25.3885 -50.7796 -41.5412 141.063 30.5078 -55.3141 30.2894 -158.118 -66.9887 -174.041 152.829 -32.6187 -11.7133 -58.7932 0.134691 0.247922 9.89384 -3.40887 -24.6289 
-337.961 65.689 351.701 108.802 24.1096 93.4316 -151.131 11.5665 114.625 -74.2875 54.3289 -2.93526 14.9109 -28.353 -3.23552 142.498 -3.13165 10.8875 127.592 -21.3577 19.5197 78.3736 -22.72 85.5792 21.7414 62.8151 -34.2063 36.142 31.8242 123.51 3.61197 6.4515 -92.4456 14.1152 5.9612 -5.72001 2.44419 5.70411 -5.97638 -20.152 7.40288 -3.66169 -0.139356 7.40288 -3.66168 129.058 -15.2882 -16.4735 34.7691 -22.0178 -0.590422 9.01987 -57.7617 0.0104699 1.28663 0.519311 26.9234 -50.2533 -41.6042 141.836 29.5641 -53.3853 28.3601 -160.841 -65.814 -175.646 154.261 -35.255 -11.8715 -58.0155 0.366695 1.17555 9.40694 -2.90543 -26.5343 
-340.251 65.6211 353.543 111.398 24.993 95.1575 -148.474 5.97891 118.478 -70.6751 56.415 -0.627974 14.4206 -28.2072 -5.27492 142.699 -2.71038 11.1335 151.758 -38.289 45.2141 58.3339 -42.7576 74.6328 -3.32334 37.4753 7.89869 88.1333 41.4791 72.2047 3.5752 6.64293 -92.8629 13.7325 5.69831 -6.48586 2.0566 5.40802 -6.72953 -20.508 7.38182 -4.47414 -0.495336 7.38183 -4.47414 129.126 -14.9102 -15.9172 34.0637 -20.9521 -0.535265 8.773 -58.8726 0.010804 1.59326 0.633296 28.1659 -49.7162 -41.6499 142.631 28.7558 -51.4078 26.5525 -163.579 -63.8377 -177.185 155.471 -38.6738 -12.2154 -57.2159 0.62385 2.11167 8.9567 -2.37948 -28.4834 
-342.925 64.9916 355.812 114.042 26.0068 96.9099 -145.738 1.29276 122.813 -67.5074 57.3818 1.28556 14.1031 -26.9383 -7.09383 142.874 -2.18733 11.4336 175.848 -39.0587 94.2289 -64.9724 -47.2832 -51.9207 37.3726 -5.83573 40.6814 128.76 7.10347 28.8001 3.53284 6.83673 -93.2913 13.3418 5.42165 -7.27244 1.66046 5.09728 -7.50276 -20.8676 7.35352 -5.31088 -0.854964 7.35353 -5.31089 129.205 -14.5512 -15.3538 33.3508 -19.9539 -0.477369 8.49506 -59.905 0.0111382 1.83333 0.727934 29.1446 -49.1747 -41.6761 143.439 28.0717 -49.4047 24.865 -166.216 -60.768 -178.546 156.284 -43.1448 -12.8775 -56.4004 0.904014 3.04675 8.54886 -1.83817 -30.4591 
-346.672 61.6211 359.882 116.692 27.1293 98.6625 -145.238 0.347952 127.704 -71.5517 59.0734 2.89476 17.1376 -25.6799 -5.49415 143.044 -1.604 11.7651 -165.033 -46.2342 121.555 -49.8298 -28.139 -53.2421 42.3657 8.86637 46.3599 119.341 16.574 35.1725 3.48683 7.03001 -93.725 12.9487 5.13794 -8.06987 1.26145 4.77907 -8.28656 -21.2256 7.32137 -6.16045 -1.21295 7.32138 -6.16045 129.295 -14.2136 -14.7889 32.6412 -19.0403 -0.416328 8.2033 -60.8461 0.0114646 2.02065 0.804665 29.8959 -48.6349 -41.6819 144.252 27.4967 -47.3967 23.2917 -168.691 -56.2139 -179.67 156.367 -49.0283 -14.1416 -55.575 1.20427 3.97187 8.18691 -1.28889 -32.4447 
-350.849 57.7185 364.472 119.312 28.3284 100.393 -145.427 0.0112569 132.596 -76.7039 60.491 4.16961 20.5619 -24.0558 -3.16279 143.22 -0.988086 12.1126 -158.941 -38.4548 124.288 -52.8311 -17.8934 -35.574 50.0443 6.04898 40.2681 112.304 20.9942 40.1338 3.43999 7.22042 -94.1588 12.558 4.85514 -8.86908 0.864468 4.46177 -9.07215 -21.5776 7.29015 -7.01167 -1.56496 7.29016 -7.01168 129.393 -13.8986 -14.2277 31.9455 -18.224 -0.351777 7.9139 -61.6857 0.0117752 2.16675 0.865787 30.4583 -48.1027 -41.6667 145.062 27.0133 -45.4009 21.8248 -170.581 -49.6422 179.978 154.929 -56.7508 -16.7322 -54.7447 1.52135 4.87919 7.87197 -0.738779 -34.4248 
